<svg xmlns="http://www.w3.org/2000/svg" viewBox="0 0 200 140" fill="none" aria-hidden="true">
  <defs>
    <linearGradient id="v1a" x1="0" y1="0" x2="1" y2="1">
      <stop offset="0%" stop-color="#8B7CFF"/>
      <stop offset="100%" stop-color="#5A9DFF"/>
    </linearGradient>
    <linearGradient id="v1b" x1="0" y1="1" x2="1" y2="0">
      <stop offset="0%" stop-color="#E8DCFB"/>
      <stop offset="100%" stop-color="#C9D9FF"/>
    </linearGradient>
    <filter id="v1s" x="-20%" y="-20%" width="140%" height="140%">
      <feDropShadow dx="0" dy="4" stdDeviation="3" flood-color="#5A4BD6" flood-opacity="0.22"/>
    </filter>
  </defs>
  <!-- isometric card stack (right) -->
  <g filter="url(#v1s)" transform="translate(88 18)">
    <path fill="url(#v1b)" d="M52 28 L96 52 L96 96 L52 120 L8 96 L8 52 Z"/>
    <path fill="url(#v1a)" opacity="0.92" d="M52 8 L96 32 L96 76 L52 100 L8 76 L8 32 Z"/>
    <path fill="#fff" opacity="0.35" d="M32 40h40v6H32zm0 14h28v4H32z"/>
  </g>
  <ellipse cx="158" cy="118" rx="36" ry="10" fill="#635BFF" opacity="0.12"/>
  <g transform="translate(132 72)">
    <ellipse cx="18" cy="26" rx="16" ry="6" fill="#FFD88A" opacity="0.9"/>
    <ellipse cx="18" cy="22" rx="16" ry="6" fill="#FFE7B8"/>
    <ellipse cx="18" cy="18" rx="16" ry="6" fill="#FFF1D6"/>
  </g>
</svg>
