<svg preserveAspectRatio="none" width="100%" height="100%" overflow="visible" style="display: block;" viewBox="0 0 112.8 139.366" fill="none" xmlns="http://www.w3.org/2000/svg">
<g id="Group">
<path id="Vector" d="M0.4 0.4H112.4V138.4L100.4 134.4L88.4 138.4L76.4 134.4L64.4 138.4L52.4 134.4L40.4 138.4L28.4 134.4L16.4 138.4L4.4 134.4L0.4 138.4V0.4Z" fill="url(#paint0_linear_0_33)" stroke="var(--stroke-0, #D6DFF0)" stroke-width="0.8"/>
<path id="Vector_2" opacity="0.05" d="M112.4 0.4H0.4V6.4H112.4V0.4Z" fill="var(--fill-0, #0E1525)"/>
<path id="Vector_3" d="M58.4 14.4H16.4C15.2954 14.4 14.4 15.2954 14.4 16.4V18.4C14.4 19.5046 15.2954 20.4 16.4 20.4H58.4C59.5046 20.4 60.4 19.5046 60.4 18.4V16.4C60.4 15.2954 59.5046 14.4 58.4 14.4Z" fill="var(--fill-0, #1E5FCC)"/>
<path id="Vector_4" d="M90.9 26.4H15.9C15.0716 26.4 14.4 27.0716 14.4 27.9C14.4 28.7284 15.0716 29.4 15.9 29.4H90.9C91.7284 29.4 92.4 28.7284 92.4 27.9C92.4 27.0716 91.7284 26.4 90.9 26.4Z" fill="var(--fill-0, #D6DFF0)"/>
<path id="Vector_5" d="M62.9 44.4H15.9C15.0716 44.4 14.4 45.0716 14.4 45.9V46.4C14.4 47.2284 15.0716 47.9 15.9 47.9H62.9C63.7284 47.9 64.4 47.2284 64.4 46.4V45.9C64.4 45.0716 63.7284 44.4 62.9 44.4Z" fill="var(--fill-0, #9AA6BD)"/>
<path id="Vector_6" d="M96.9 44.4H81.9C81.0716 44.4 80.4 45.0716 80.4 45.9V46.4C80.4 47.2284 81.0716 47.9 81.9 47.9H96.9C97.7284 47.9 98.4 47.2284 98.4 46.4V45.9C98.4 45.0716 97.7284 44.4 96.9 44.4Z" fill="var(--fill-0, #0E1525)"/>
<path id="Vector_7" d="M52.9 56.4H15.9C15.0716 56.4 14.4 57.0716 14.4 57.9V58.4C14.4 59.2284 15.0716 59.9 15.9 59.9H52.9C53.7284 59.9 54.4 59.2284 54.4 58.4V57.9C54.4 57.0716 53.7284 56.4 52.9 56.4Z" fill="var(--fill-0, #9AA6BD)"/>
<path id="Vector_8" d="M96.9 56.4H81.9C81.0716 56.4 80.4 57.0716 80.4 57.9V58.4C80.4 59.2284 81.0716 59.9 81.9 59.9H96.9C97.7284 59.9 98.4 59.2284 98.4 58.4V57.9C98.4 57.0716 97.7284 56.4 96.9 56.4Z" fill="var(--fill-0, #0E1525)"/>
<path id="Vector_9" d="M70.9 68.4H15.9C15.0716 68.4 14.4 69.0716 14.4 69.9V70.4C14.4 71.2284 15.0716 71.9 15.9 71.9H70.9C71.7284 71.9 72.4 71.2284 72.4 70.4V69.9C72.4 69.0716 71.7284 68.4 70.9 68.4Z" fill="var(--fill-0, #9AA6BD)"/>
<path id="Vector_10" d="M96.9 68.4H81.9C81.0716 68.4 80.4 69.0716 80.4 69.9V70.4C80.4 71.2284 81.0716 71.9 81.9 71.9H96.9C97.7284 71.9 98.4 71.2284 98.4 70.4V69.9C98.4 69.0716 97.7284 68.4 96.9 68.4Z" fill="var(--fill-0, #0E1525)"/>
<path id="Vector_11" d="M14.4 82.4H98.4" stroke="var(--stroke-0, #D6DFF0)" stroke-width="0.8" stroke-dasharray="2 2"/>
<path id="Vector_12" d="M38.4 90.4H16.4C15.2954 90.4 14.4 91.2954 14.4 92.4V93.4C14.4 94.5046 15.2954 95.4 16.4 95.4H38.4C39.5046 95.4 40.4 94.5046 40.4 93.4V92.4C40.4 91.2954 39.5046 90.4 38.4 90.4Z" fill="var(--fill-0, #5B6276)"/>
<path id="Vector_13" d="M96.4 88.4H70.4C69.2954 88.4 68.4 89.2954 68.4 90.4V95.4C68.4 96.5046 69.2954 97.4 70.4 97.4H96.4C97.5046 97.4 98.4 96.5046 98.4 95.4V90.4C98.4 89.2954 97.5046 88.4 96.4 88.4Z" fill="var(--fill-0, #635BFF)"/>
<path id="Vector_14" d="M92.4 130.4C100.132 130.4 106.4 124.132 106.4 116.4C106.4 108.668 100.132 102.4 92.4 102.4C84.668 102.4 78.4 108.668 78.4 116.4C78.4 124.132 84.668 130.4 92.4 130.4Z" fill="var(--fill-0, #DCF2E4)" stroke="var(--stroke-0, #0E8B4D)" stroke-width="1.4"/>
<path id="Vector_15" d="M86.4 116.4L91.4 121.4L99.4 112.4" stroke="var(--stroke-0, #0E8B4D)" stroke-width="2.4" stroke-linecap="round" stroke-linejoin="round"/>
</g>
<defs>
<linearGradient id="paint0_linear_0_33" x1="0.4" y1="0.4" x2="0.4" y2="138.4" gradientUnits="userSpaceOnUse">
<stop stop-color="white"/>
<stop offset="1" stop-color="#EAF0FB"/>
</linearGradient>
</defs>
</svg>
