<svg width="335" height="259" viewBox="0 0 335 259" fill="none" xmlns="http://www.w3.org/2000/svg">
<g filter="url(#filter0_d_5_392)">
<g opacity="0.45" filter="url(#filter1_f_5_392)">
<path d="M158 184C213.228 184 258 177.732 258 170C258 162.268 213.228 156 158 156C102.772 156 58 162.268 58 170C58 177.732 102.772 184 158 184Z" fill="#0A2A6A"/>
</g>
<path opacity="0.25" d="M86 108C98.1503 108 108 105.314 108 102C108 98.6863 98.1503 96 86 96C73.8497 96 64 98.6863 64 102C64 105.314 73.8497 108 86 108Z" fill="black"/>
<path d="M86 116C98.1503 116 108 106.15 108 94C108 81.8497 98.1503 72 86 72C73.8497 72 64 81.8497 64 94C64 106.15 73.8497 116 86 116Z" fill="url(#paint0_radial_5_392)"/>
<path d="M86 110C95.9411 110 104 101.941 104 92C104 82.0589 95.9411 74 86 74C76.0589 74 68 82.0589 68 92C68 101.941 76.0589 110 86 110Z" fill="url(#paint1_radial_5_392)"/>
<path d="M94.674 88.5462V89.9524H77.326V88.5462H94.674ZM94.674 91.0327V92.4389H77.326V91.0327H94.674ZM79.7997 84.9091L82.1839 94.005H82.2926L84.7472 84.9091H87.2528L89.7074 94.0241H89.8161L92.2003 84.9091H94.7315L91.2607 98H88.4418L86.0575 89.4411H85.9553L83.5582 98H80.7393L77.2685 84.9091H79.7997Z" fill="#7C4A0A"/>
<path opacity="0.2" d="M246 69.5C253.732 69.5 260 67.933 260 66C260 64.067 253.732 62.5 246 62.5C238.268 62.5 232 64.067 232 66C232 67.933 238.268 69.5 246 69.5Z" fill="black"/>
<path d="M246 46L249 57L260 60L249 63L246 74L243 63L232 60L243 57L246 46Z" fill="url(#paint2_linear_5_392)"/>
<path opacity="0.55" d="M246 50L248 58L256 60L248 62L246 70L244 62L236 60L244 58L246 50Z" fill="#A39DFF"/>
<path d="M86.1069 48.5236L197.017 32.9362L216.223 169.593L203.783 167.302L192.456 172.933L180.017 170.642L168.69 176.274L156.25 173.983L144.924 179.614L132.484 177.323L121.157 182.954L108.717 180.663L105.313 185.181L86.1069 48.5236Z" fill="url(#paint3_linear_5_392)" stroke="#D6DFF0" stroke-width="0.8"/>
<path opacity="0.05" d="M197.017 32.9362L86.1069 48.5236L86.942 54.4652L197.852 38.8778L197.017 32.9362Z" fill="#0E1525"/>
<path d="M145.491 54.3153L103.9 60.1606C102.806 60.3143 102.044 61.3256 102.198 62.4195L102.476 64.4C102.63 65.4938 103.641 66.2559 104.735 66.1022L146.326 60.2569C147.42 60.1032 148.182 59.0918 148.028 57.998L147.75 56.0175C147.596 54.9237 146.585 54.1616 145.491 54.3153Z" fill="#1E5FCC"/>
<path d="M179.345 61.6754L105.075 72.1134C104.254 72.2287 103.683 72.9872 103.798 73.8075C103.913 74.6279 104.672 75.1995 105.492 75.0842L179.762 64.6462C180.583 64.5309 181.154 63.7724 181.039 62.952C180.923 62.1317 180.165 61.5601 179.345 61.6754Z" fill="#D6DFF0"/>
<path d="M154.122 83.3971L107.58 89.9382C106.759 90.0535 106.188 90.812 106.303 91.6324L106.373 92.1275C106.488 92.9479 107.246 93.5194 108.067 93.4041L154.609 86.863C155.43 86.7477 156.001 85.9892 155.886 85.1688L155.816 84.6737C155.701 83.8533 154.943 83.2818 154.122 83.3971Z" fill="#9AA6BD"/>
<path d="M187.791 78.6652L172.937 80.7528C172.117 80.8681 171.545 81.6266 171.661 82.4469L171.73 82.9421C171.846 83.7624 172.604 84.334 173.424 84.2187L188.278 82.1311C189.099 82.0158 189.67 81.2573 189.555 80.437L189.485 79.9418C189.37 79.1215 188.612 78.5499 187.791 78.6652Z" fill="#0E1525"/>
<path d="M145.89 96.672L109.25 101.821C108.429 101.937 107.858 102.695 107.973 103.516L108.043 104.011C108.158 104.831 108.917 105.403 109.737 105.287L146.377 100.138C147.197 100.023 147.769 99.2642 147.653 98.4438L147.584 97.9487C147.469 97.1283 146.71 96.5567 145.89 96.672Z" fill="#9AA6BD"/>
<path d="M189.461 90.5484L174.607 92.636C173.787 92.7513 173.216 93.5098 173.331 94.3302L173.4 94.8253C173.516 95.6457 174.274 96.2172 175.095 96.1019L189.949 94.0143C190.769 93.899 191.341 93.1405 191.225 92.3202L191.156 91.825C191.04 91.0047 190.282 90.4331 189.461 90.5484Z" fill="#0E1525"/>
<path d="M165.385 106.05L110.92 113.705C110.1 113.82 109.528 114.578 109.643 115.399L109.713 115.894C109.828 116.714 110.587 117.286 111.407 117.171L165.872 109.516C166.692 109.401 167.264 108.642 167.148 107.822L167.079 107.327C166.964 106.506 166.205 105.935 165.385 106.05Z" fill="#9AA6BD"/>
<path d="M191.132 102.432L176.278 104.519C175.457 104.635 174.886 105.393 175.001 106.213L175.071 106.709C175.186 107.529 175.944 108.1 176.765 107.985L191.619 105.898C192.439 105.782 193.011 105.024 192.895 104.203L192.826 103.708C192.711 102.888 191.952 102.316 191.132 102.432Z" fill="#0E1525"/>
<path d="M111.383 127.777L194.565 116.087" stroke="#D6DFF0" stroke-width="0.8" stroke-dasharray="2 2"/>
<path d="M136.263 132.359L114.477 135.421C113.383 135.575 112.621 136.586 112.775 137.68L112.914 138.67C113.068 139.764 114.079 140.526 115.173 140.372L136.959 137.31C138.052 137.157 138.815 136.145 138.661 135.052L138.522 134.061C138.368 132.968 137.357 132.205 136.263 132.359Z" fill="#5B6276"/>
<path d="M193.42 122.307L167.673 125.925C166.579 126.079 165.817 127.09 165.971 128.184L166.667 133.135C166.82 134.229 167.832 134.991 168.925 134.837L194.672 131.219C195.766 131.065 196.528 130.054 196.375 128.96L195.679 124.009C195.525 122.915 194.514 122.153 193.42 122.307Z" fill="#635BFF"/>
<path d="M195.304 164.455C202.961 163.378 208.295 156.299 207.219 148.642C206.143 140.986 199.064 135.651 191.407 136.727C183.75 137.803 178.416 144.882 179.492 152.539C180.568 160.196 187.647 165.531 195.304 164.455Z" fill="#DCF2E4" stroke="#0E8B4D" stroke-width="1.4"/>
<path d="M187.414 151.426L193.061 155.681L199.731 145.655" stroke="#0E8B4D" stroke-width="2.4" stroke-linecap="round" stroke-linejoin="round"/>
<path d="M254.906 81.6458L148.173 108.257C140.671 110.128 136.105 117.726 137.976 125.228L152.007 181.505C153.878 189.008 161.476 193.573 168.979 191.703L275.711 165.091C283.213 163.221 287.779 155.622 285.908 148.12L271.877 91.843C270.006 84.3407 262.408 79.7752 254.906 81.6458Z" fill="url(#paint4_linear_5_392)"/>
<path d="M254.906 81.6458L148.173 108.257C140.671 110.128 136.105 117.726 137.976 125.228L152.007 181.505C153.878 189.008 161.476 193.573 168.979 191.703L275.711 165.091C283.213 163.221 287.779 155.622 285.908 148.12L271.877 91.843C270.006 84.3407 262.408 79.7752 254.906 81.6458Z" fill="url(#paint5_linear_5_392)"/>
<path d="M171.931 125.007L156.406 128.878C154.799 129.279 153.821 130.907 154.221 132.515L156.641 142.218C157.041 143.825 158.67 144.803 160.277 144.403L175.802 140.532C177.41 140.131 178.388 138.503 177.987 136.895L175.568 127.192C175.167 125.585 173.539 124.606 171.931 125.007Z" fill="#F2C76A"/>
<path d="M171.081 127.796L158.467 130.941C157.395 131.208 156.743 132.293 157.01 133.365L158.703 140.157C158.971 141.229 160.056 141.881 161.128 141.614L173.742 138.469C174.813 138.202 175.466 137.116 175.198 136.045L173.505 129.253C173.238 128.181 172.152 127.529 171.081 127.796Z" fill="#D9A93D"/>
<path d="M164.774 129.368L167.435 140.042" stroke="#B8861F" stroke-width="0.6"/>
<path d="M157.373 134.821L173.868 130.708" stroke="#B8861F" stroke-width="0.6"/>
<path d="M158.341 138.702L174.836 134.589" stroke="#B8861F" stroke-width="0.6"/>
<path d="M187.448 133.506C187.063 131.962 187.307 130.328 188.127 128.964C188.946 127.6 190.274 126.617 191.818 126.232" stroke="white" stroke-opacity="0.85" stroke-width="1.6" stroke-linecap="round"/>
<path d="M188.416 137.387C187.774 134.814 188.181 132.091 189.547 129.817C190.913 127.544 193.126 125.906 195.7 125.265" stroke="white" stroke-opacity="0.85" stroke-width="1.6" stroke-linecap="round"/>
<path d="M189.383 141.268C188.485 137.665 189.055 133.853 190.967 130.671C192.88 127.488 195.978 125.195 199.581 124.297" stroke="white" stroke-opacity="0.85" stroke-width="1.6" stroke-linecap="round"/>
<g opacity="0.95">
<path d="M180.16 151.813L161.725 156.409C160.921 156.609 160.432 157.424 160.632 158.227L161.116 160.168C161.316 160.972 162.131 161.461 162.934 161.261L181.37 156.664C182.174 156.464 182.663 155.65 182.463 154.846L181.979 152.905C181.778 152.101 180.964 151.612 180.16 151.813Z" fill="white"/>
<path d="M205.388 145.523L186.953 150.119C186.149 150.32 185.66 151.134 185.86 151.937L186.344 153.878C186.544 154.682 187.358 155.171 188.162 154.971L206.598 150.374C207.402 150.174 207.891 149.36 207.69 148.556L207.206 146.615C207.006 145.811 206.192 145.322 205.388 145.523Z" fill="white"/>
<path d="M230.616 139.233L212.18 143.829C211.376 144.03 210.887 144.844 211.087 145.647L211.571 147.588C211.772 148.392 212.586 148.881 213.39 148.681L231.825 144.084C232.629 143.884 233.118 143.07 232.918 142.266L232.434 140.325C232.234 139.521 231.419 139.032 230.616 139.233Z" fill="white"/>
<path d="M255.843 132.943L237.408 137.539C236.604 137.74 236.115 138.554 236.315 139.357L236.799 141.298C236.999 142.102 237.813 142.591 238.617 142.391L257.053 137.794C257.857 137.594 258.346 136.78 258.145 135.976L257.662 134.035C257.461 133.231 256.647 132.742 255.843 132.943Z" fill="white"/>
</g>
<path opacity="0.7" d="M204.894 160.074L165.112 169.993C164.308 170.194 163.819 171.008 164.019 171.812C164.22 172.615 165.034 173.105 165.837 172.904L205.62 162.985C206.423 162.785 206.913 161.971 206.712 161.167C206.512 160.363 205.698 159.874 204.894 160.074Z" fill="white"/>
<path d="M251.486 156.703L249.55 148.94L254.781 147.636L255.118 148.989L251.529 149.884L251.99 151.734L255.31 150.906L255.647 152.259L252.327 153.087L252.789 154.94L256.394 154.042L256.731 155.395L251.486 156.703ZM257.488 146.961L260.834 152.391L260.906 152.373L261.316 146.007L263.135 145.553L262.395 153.983L260.28 154.51L255.665 147.416L257.488 146.961ZM268.837 146.503C268.731 146.205 268.541 146 268.269 145.888C267.997 145.776 267.664 145.769 267.27 145.867C267.002 145.934 266.785 146.028 266.619 146.15C266.453 146.269 266.337 146.407 266.271 146.563C266.208 146.718 266.197 146.879 266.239 147.046C266.269 147.186 266.328 147.3 266.417 147.388C266.508 147.475 266.62 147.543 266.753 147.59C266.885 147.635 267.032 147.667 267.195 147.685C267.358 147.701 267.528 147.707 267.707 147.702L268.446 147.695C268.803 147.687 269.139 147.71 269.454 147.766C269.768 147.822 270.052 147.916 270.306 148.049C270.559 148.182 270.773 148.359 270.949 148.581C271.128 148.802 271.259 149.074 271.342 149.397C271.458 149.872 271.439 150.315 271.286 150.723C271.135 151.129 270.859 151.483 270.457 151.787C270.057 152.089 269.541 152.318 268.909 152.475C268.282 152.632 267.713 152.672 267.2 152.595C266.69 152.519 266.257 152.325 265.903 152.013C265.551 151.698 265.299 151.263 265.147 150.708L266.735 150.312C266.818 150.568 266.947 150.766 267.121 150.908C267.298 151.047 267.509 151.132 267.753 151.165C267.999 151.195 268.264 151.175 268.547 151.104C268.825 151.035 269.056 150.934 269.241 150.802C269.428 150.67 269.56 150.517 269.638 150.345C269.716 150.173 269.731 149.993 269.685 149.806C269.641 149.632 269.553 149.498 269.42 149.405C269.289 149.311 269.115 149.248 268.897 149.213C268.682 149.178 268.424 149.162 268.124 149.165L267.226 149.163C266.532 149.167 265.953 149.047 265.489 148.803C265.026 148.559 264.724 148.15 264.583 147.575C264.464 147.106 264.486 146.664 264.652 146.25C264.819 145.835 265.101 145.474 265.496 145.166C265.892 144.858 266.373 144.633 266.939 144.492C267.515 144.348 268.042 144.322 268.521 144.412C269.002 144.501 269.407 144.691 269.734 144.983C270.062 145.274 270.287 145.65 270.41 146.111L268.837 146.503Z" fill="white"/>
<path opacity="0.3" d="M228 166C242.359 166 254 163.314 254 160C254 156.686 242.359 154 228 154C213.641 154 202 156.686 202 160C202 163.314 213.641 166 228 166Z" fill="black"/>
<path d="M228 174C241.255 174 252 164.15 252 152C252 139.85 241.255 130 228 130C214.745 130 204 139.85 204 152C204 164.15 214.745 174 228 174Z" fill="url(#paint6_radial_5_392)"/>
<path d="M228 169C241.255 169 252 159.15 252 147C252 134.85 241.255 125 228 125C214.745 125 204 134.85 204 147C204 159.15 214.745 169 228 169Z" fill="url(#paint7_radial_5_392)"/>
<path d="M228 164C241.255 164 252 154.15 252 142C252 129.85 241.255 120 228 120C214.745 120 204 129.85 204 142C204 154.15 214.745 164 228 164Z" fill="url(#paint8_radial_5_392)"/>
<path d="M228 158C239.046 158 248 149.941 248 140C248 130.059 239.046 122 228 122C216.954 122 208 130.059 208 140C208 149.941 216.954 158 228 158Z" fill="url(#paint9_radial_5_392)"/>
<path d="M238.602 135.445V137.164H217.398V135.445H238.602ZM238.602 138.484V140.203H217.398V138.484H238.602ZM220.422 131L223.336 142.117H223.469L226.469 131H229.531L232.531 142.141H232.664L235.578 131H238.672L234.43 147H230.984L228.07 136.539H227.945L225.016 147H221.57L217.328 131H220.422Z" fill="#7C4A0A"/>
<path opacity="0.8" d="M68 51C69.6569 51 71 49.6569 71 48C71 46.3431 69.6569 45 68 45C66.3431 45 65 46.3431 65 48C65 49.6569 66.3431 51 68 51Z" fill="#9CC2FF"/>
<path opacity="0.85" d="M280 100.5C281.381 100.5 282.5 99.3807 282.5 98C282.5 96.6193 281.381 95.5 280 95.5C278.619 95.5 277.5 96.6193 277.5 98C277.5 99.3807 278.619 100.5 280 100.5Z" fill="#A39DFF"/>
<path opacity="0.9" d="M50 140C51.1046 140 52 139.105 52 138C52 136.895 51.1046 136 50 136C48.8954 136 48 136.895 48 138C48 139.105 48.8954 140 50 140Z" fill="#FFE48A"/>
</g>
<defs>
<filter id="filter0_d_5_392" x="-30" y="-30" width="376" height="296" filterUnits="userSpaceOnUse" color-interpolation-filters="sRGB">
<feFlood flood-opacity="0" result="BackgroundImageFix"/>
<feColorMatrix in="SourceAlpha" type="matrix" values="0 0 0 0 0 0 0 0 0 0 0 0 0 0 0 0 0 0 127 0" result="hardAlpha"/>
<feOffset dy="18"/>
<feGaussianBlur stdDeviation="24"/>
<feColorMatrix type="matrix" values="0 0 0 0 0 0 0 0 0 0 0 0 0 0 0 0 0 0 0.28 0"/>
<feBlend mode="normal" in2="BackgroundImageFix" result="effect1_dropShadow_5_392"/>
<feBlend mode="normal" in="SourceGraphic" in2="effect1_dropShadow_5_392" result="shape"/>
</filter>
<filter id="filter1_f_5_392" x="54" y="152" width="208" height="36" filterUnits="userSpaceOnUse" color-interpolation-filters="sRGB">
<feFlood flood-opacity="0" result="BackgroundImageFix"/>
<feBlend mode="normal" in="SourceGraphic" in2="BackgroundImageFix" result="shape"/>
<feGaussianBlur stdDeviation="2" result="effect1_foregroundBlur_5_392"/>
</filter>
<radialGradient id="paint0_radial_5_392" cx="0" cy="0" r="1" gradientUnits="userSpaceOnUse" gradientTransform="translate(77.2 83) scale(37.4)">
<stop stop-color="#FFE48A"/>
<stop offset="0.6" stop-color="#F2A93B"/>
<stop offset="1" stop-color="#B8740F"/>
</radialGradient>
<radialGradient id="paint1_radial_5_392" cx="0" cy="0" r="1" gradientUnits="userSpaceOnUse" gradientTransform="translate(86 92) scale(18)">
<stop stop-color="#FFE695"/>
<stop offset="1" stop-color="#E4A22B"/>
</radialGradient>
<linearGradient id="paint2_linear_5_392" x1="232" y1="46" x2="260" y2="74" gradientUnits="userSpaceOnUse">
<stop stop-color="#8A82FF"/>
<stop offset="1" stop-color="#635BFF"/>
</linearGradient>
<linearGradient id="paint3_linear_5_392" x1="86.1069" y1="48.5236" x2="105.313" y2="185.181" gradientUnits="userSpaceOnUse">
<stop stop-color="white"/>
<stop offset="1" stop-color="#EAF0FB"/>
</linearGradient>
<linearGradient id="paint4_linear_5_392" x1="134.589" y1="111.644" x2="239.472" y2="213.173" gradientUnits="userSpaceOnUse">
<stop stop-color="#5A9DFF"/>
<stop offset="1" stop-color="#1E5FCC"/>
</linearGradient>
<linearGradient id="paint5_linear_5_392" x1="134.589" y1="111.644" x2="251.778" y2="179.069" gradientUnits="userSpaceOnUse">
<stop stop-color="white" stop-opacity="0.45"/>
<stop offset="0.6" stop-color="white" stop-opacity="0"/>
</linearGradient>
<radialGradient id="paint6_radial_5_392" cx="0" cy="0" r="1" gradientUnits="userSpaceOnUse" gradientTransform="translate(218.4 141) scale(40.8 37.4)">
<stop stop-color="#FFE48A"/>
<stop offset="0.6" stop-color="#F2A93B"/>
<stop offset="1" stop-color="#B8740F"/>
</radialGradient>
<radialGradient id="paint7_radial_5_392" cx="0" cy="0" r="1" gradientUnits="userSpaceOnUse" gradientTransform="translate(218.4 136) scale(40.8 37.4)">
<stop stop-color="#FFE48A"/>
<stop offset="0.6" stop-color="#F2A93B"/>
<stop offset="1" stop-color="#B8740F"/>
</radialGradient>
<radialGradient id="paint8_radial_5_392" cx="0" cy="0" r="1" gradientUnits="userSpaceOnUse" gradientTransform="translate(218.4 131) scale(40.8 37.4)">
<stop stop-color="#FFE48A"/>
<stop offset="0.6" stop-color="#F2A93B"/>
<stop offset="1" stop-color="#B8740F"/>
</radialGradient>
<radialGradient id="paint9_radial_5_392" cx="0" cy="0" r="1" gradientUnits="userSpaceOnUse" gradientTransform="translate(228 140) scale(20 18)">
<stop stop-color="#FFE695"/>
<stop offset="1" stop-color="#E4A22B"/>
</radialGradient>
</defs>
</svg>
