<svg width="88" height="112" viewBox="0 0 88 112" fill="none" xmlns="http://www.w3.org/2000/svg">
<path d="M44 20L88 44V88L44 112L0 88V44L44 20Z" fill="url(#paint0_linear_11_414)"/>
<path opacity="0.92" d="M44 0L88 24V68L44 92L0 68V24L44 0Z" fill="url(#paint1_linear_11_414)"/>
<path opacity="0.35" d="M24 32H64V38H24V32ZM24 46H52V50H24V46Z" fill="white"/>
<path opacity="0.9" d="M54 78C62.8366 78 70 75.3137 70 72C70 68.6863 62.8366 66 54 66C45.1634 66 38 68.6863 38 72C38 75.3137 45.1634 78 54 78Z" fill="#FFD88A"/>
<path d="M54 74C62.8366 74 70 71.3137 70 68C70 64.6863 62.8366 62 54 62C45.1634 62 38 64.6863 38 68C38 71.3137 45.1634 74 54 74Z" fill="#FFE7B8"/>
<path d="M54 70C62.8366 70 70 67.3137 70 64C70 60.6863 62.8366 58 54 58C45.1634 58 38 60.6863 38 64C38 67.3137 45.1634 70 54 70Z" fill="#FFF1D6"/>
<defs>
<linearGradient id="paint0_linear_11_414" x1="0" y1="112" x2="91.9092" y2="24.0869" gradientUnits="userSpaceOnUse">
<stop stop-color="#E8DCFB"/>
<stop offset="1" stop-color="#C9D9FF"/>
</linearGradient>
<linearGradient id="paint1_linear_11_414" x1="0" y1="0" x2="91.9092" y2="87.9131" gradientUnits="userSpaceOnUse">
<stop stop-color="#8B7CFF"/>
<stop offset="1" stop-color="#5A9DFF"/>
</linearGradient>
</defs>
</svg>
